<?xml version="1.0" encoding="utf-8"?>
<!-- Generator: Adobe Illustrator 22.0.1, SVG Export Plug-In . SVG Version: 6.00 Build 0)  -->
<svg version="1.1" id="Calque_1" xmlns="http://www.w3.org/2000/svg" xmlns:xlink="http://www.w3.org/1999/xlink" x="0px" y="0px"
	 viewBox="0 0 432 432" style="enable-background:new 0 0 432 432;" xml:space="preserve">
<style type="text/css">
	.st0{fill:#E6E6E6;}
	.st1{fill:#F5D63D;}
	.st2{fill:#78C5D6;}
	.st3{fill:#E868A2;}
	.st4{fill:#459BA8;}
	.st5{fill:#BF62A6;}
	.st6{fill:#F28C33;}
	.st7{fill:#333333;}
	.st8{fill:#1A1A1A;}
	.st9{fill:#79C267;}
	.st10{fill:#71796A;}
	.st11{fill:#8B8285;}
	.st12{fill:#E3A8A4;}
	.st13{fill:#842258;}
	.st14{fill:#300D28;}
	.st15{fill:#36463C;}
	.st16{fill:#FF7470;}
	.st17{fill:#FFE7DD;}
	.st18{fill:#A67C52;}
	.st19{fill:#9FC8C2;}
	.st20{fill:#C1272D;}
	.st21{fill:#B98D4D;}
	.st22{fill:#9DA34B;}
	.st23{fill:#664931;}
	.st24{fill:#748D91;}
	.st25{fill:#F1D2CD;}
	.st26{fill:#FFFFFF;}
	.st27{fill:#C7B299;}
	.st28{fill:#ED1C24;}
	.st29{fill:#7F3762;}
	.st30{fill:#EC1C24;}
	.st31{fill:#B93545;}
	.st32{fill:#E791A0;}
	.st33{fill:#78071D;}
	.st34{fill:#80424C;}
	.st35{fill:#8C6239;}
	.st36{fill:#C69C6D;}
	.st37{fill:#D6B6BA;}
	.st38{fill:#DED2D3;}
	.st39{fill:#B58187;}
	.st40{fill:#7D6364;}
	.st41{fill:#700F3A;}
	.st42{fill:#A46779;}
	.st43{fill:#BC7A98;}
	.st44{fill:#934251;}
	.st45{fill:#313133;}
	.st46{fill:#8C9976;}
	.st47{fill:#596A58;}
	.st48{fill:#CFCAC7;}
	.st49{fill:#D6D39C;}
	.st50{fill:#F2F2F2;}
	.st51{fill:#ED61A0;}
	.st52{fill:#B3A9B7;}
	.st53{fill:#C38B88;}
	.st54{fill:#EDE3E3;}
	.st55{fill:#59476C;}
	.st56{fill:#A7343B;}
	.st57{fill:#F5CECE;}
	.st58{fill:#F78298;}
	.st59{fill:#DE5463;}
	.st60{fill:#7FA4AD;}
	.st61{fill:#9EBCC6;}
	.st62{fill:#E693BF;}
	.st63{fill:#6D5F76;}
	.st64{fill:#FE7F6C;}
	.st65{fill:#603813;}
	.st66{fill:#F0A1A5;}
	.st67{fill:#F60424;}
	.st68{fill:#754C24;}
	.st69{fill:#568445;}
	.st70{fill:#5A4740;}
	.st71{fill:#DDB458;}
	.st72{fill:#D6A14D;}
	.st73{fill:#E3A1BC;}
	.st74{fill:#E5EAA4;}
	.st75{fill:#CEE4EA;}
	.st76{fill:#D8CABF;}
	.st77{fill:#F2E2D4;}
	.st78{fill:#D9C0E0;}
	.st79{fill:#ECC0C2;}
	.st80{fill:#FFDCF4;}
	.st81{fill:#D3E4B0;}
	.st82{fill:#F7FFB4;}
	.st83{fill:#E6F7CE;}
	.st84{fill:#7A9EC7;}
	.st85{fill:#A5C0DF;}
	.st86{fill:#FBB03B;}
	.st87{fill:#F0829E;}
	.st88{fill:#998675;}
	.st89{fill:#A04D7A;}
	.st90{fill:#872B5A;}
	.st91{fill:#A70808;}
	.st92{fill:#42210B;}
	.st93{fill:#CCCCCC;}
	.st94{fill:#B3A18D;}
	.st95{fill:#C6AC8F;}
	.st96{fill:#301506;}
	.st97{fill:#B3A6AD;}
	.st98{fill:#E74C6E;}
	.st99{fill:#F8D9C4;}
	.st100{fill:#CA1542;}
	.st101{fill:#F2A297;}
	.st102{fill:#4D4D4D;}
	.st103{fill:#006837;}
	.st104{fill:#F2B4C0;}
	.st105{fill:#D39253;}
	.st106{fill:#C6824A;}
	.st107{fill:#6B4220;}
	.st108{fill:#936B47;}
	.st109{fill:#F9D7DD;}
	.st110{fill:#3B3735;}
	.st111{fill:#1C7C48;}
	.st112{fill:#A71916;}
	.st113{fill:#7E1710;}
	.st114{fill:#DC4060;}
</style>
<g>
	<path class="st93" d="M377.8,188.6c1.8-10.7-8.3-19.3-24.2,2.9c-9.9-15.6-30.8-50.7-27.2-68.8c12.5-62.8-25.2-6.9-41.6-11.3
		c-31.7-8.5-63.8,2.1-79.4,6.6c-1.7,0.5-3.2,0.1-4.4-1.2c-27.2-29.2-33.9-16.9-32.7-8c2.4,18.2,10.6,27.4,3,36.2
		c-15.9,18.6-21.5,33.7-25.3,42.8c0,0-3.9-5.3-7.6-8.2c-22.7-17.7-1.4,36.7-3.6,51.1c-6,38.3-1,55.7,2.3,70.4
		c-72.3-43.5-86.7-116-58.3-87.1c14.4,14.6,17.8,3.2,16.7-2.5c-1.7-8.9-3.6-13-3.2-19.5c1-15.3,17.8-20.1,17.4,27.3
		c-0.1,14.5,8.8,11.3,10.2,6c13.8-54.4-38.4-77-37.6-23.4c-36-27.9-47.4,35.2,24,92.2c54.4,43.5,93,47.8,181.2,44.2
		c127.2-5.3,73.2-91,80.8-119.3C372.2,205.1,376.6,195.6,377.8,188.6z"/>
	<g>
		<path class="st109" d="M193.8,118.9c-33.1-29.9-16.4,17.5-7.8,13.7C192.9,129.5,199.5,124,193.8,118.9z"/>
		<path class="st109" d="M314.5,105.2c-20,11.2-15.1,16.6-8.3,20.7c8.8,5.4,11.2,1.6,13.7-6.7C325,102.3,317.3,103.6,314.5,105.2z"
			/>
	</g>
	<g>
		<g>
			<path class="st110" d="M161.1,178.4c0.3-0.2,0.8-0.1,1.2-0.1c4.2,0.3,8.3,0.8,12.3,2.1c1.8,0.6,3.5,1.3,5,2.3
				c0.5,0.3,0.9,0.7,1.3,1.2c0.2,0.2,0.2,0.7,0.1,0.8c-0.2,0.2-0.6,0.2-0.9,0.3c-0.2,0-0.3-0.1-0.5-0.2c-4.4-2.5-9.3-3.3-14.2-3.9
				c-1.2-0.1-2.4-0.4-3.6-0.6c-0.3,0-0.6-0.1-0.8-0.2c-0.3-0.3-0.6-0.6-0.6-0.9C160.4,178.9,160.7,178.5,161.1,178.4z"/>
			<path class="st110" d="M146.4,198.2c-0.4,0.1-0.9,0.2-1.3,0.3c-0.6,0.1-1.1,0-1.3-0.6c-0.2-0.7,0.3-1,0.8-1.2
				c0.1-0.1,0.2-0.1,0.4-0.2c6.7-2.4,13.5-4.5,20.6-5.7c4-0.7,8.1-0.7,12.2,0.4c0.8,0.2,1.5,0.5,2.3,0.9c0.5,0.2,1.1,0.5,0.9,1.2
				c-0.2,0.7-0.8,0.5-1.3,0.6c-0.9-0.2-1.7-0.3-2.5-0.5c-5.7-0.9-11.3-0.3-16.8,1.1C155.6,195.7,151,196.9,146.4,198.2z"/>
			<path class="st110" d="M182.7,201.6c-0.4,0.1-0.7,0.1-1.1,0.1c-3.7,0.2-7.2,1.3-10.6,2.7c-2,0.8-4,1.7-6.1,2.6
				c-0.5,0.2-0.9,0.4-1.4,0.5c-0.5,0.1-1,0-1.1-0.5c-0.1-0.3,0-0.8,0.2-1.1c0.1-0.2,0.4-0.4,0.6-0.5c4.9-2.9,10.1-5.2,15.9-5.9
				c0.2,0,0.4-0.1,0.7-0.1c0.3,0,0.5,0,0.8,0c0,0,0,0,0-0.1c0.7,0.1,1.4,0.2,2.1,0.4c0.5,0.1,0.9,0.4,0.9,1
				C183.5,201.3,183.1,201.5,182.7,201.6z"/>
			<path class="st110" d="M317.9,182.9c1.2-1.1,2.3-2.1,3.6-3c2.5-1.7,5.2-2.7,8.1-3.6c1.6-0.5,3.3-0.9,4.9-1.4
				c0.3-0.1,0.7-0.2,1.2-0.3c0.2,0.2,0.7,0.4,0.8,0.8c0.2,0.6-0.3,0.9-0.8,1c-2.2,0.6-4.4,1.3-6.6,1.9c-3.9,1.1-7.4,2.8-10.3,5.5
				c-0.4,0.4-0.9,1.1-1.4,0.5C316.9,183.9,317.5,183.3,317.9,182.9z"/>
			<path class="st110" d="M317.2,190.9c0-0.3,0.1-0.7,0.3-0.9c0.3-0.3,0.6-0.5,1-0.7c2-1.1,4.1-1.7,6.3-2.3
				c4.4-1.1,8.8-1.4,13.4-0.6c1.3,0.2,2.7,0.3,4,0.5c1,0.2,1.4,0.5,1.4,1c0,0.5-0.5,0.8-1.5,0.7c-0.9,0-1.7-0.1-2.6-0.2c0,0,0,0,0,0
				c-1.4-0.1-2.9-0.3-4.3-0.4c-3.7-0.3-7.4,0.2-10.9,1.2c-1.7,0.5-3.3,1-5,1.6c-0.4,0.1-0.9,0.3-1.3,0.3
				C317.7,191.2,317.2,191,317.2,190.9z"/>
			<path class="st110" d="M353.7,209.4c-0.3,0.5-0.8,0.6-1.8,0.1c-2.4-1.2-4.8-2.5-7.1-3.8c-4-2.3-8.3-4.1-12.7-5.4
				c-2.6-0.7-5.3-1.1-7.9-1.4c-1.7-0.2-3.5-0.3-5.2-0.4c-0.2,0-0.5,0-0.7-0.1c-0.2-0.1-0.4-0.3-0.4-0.4c0-0.2,0.2-0.6,0.3-0.6
				c0.6-0.2,1.2-0.4,1.8-0.4c1.3,0,2.5,0,3.8,0.1c7-0.1,13.4,2.1,19.4,5.2c3.3,1.7,6.5,3.8,9.8,5.7
				C353.8,208.4,354,208.9,353.7,209.4z"/>
		</g>
		<g>
			<g>
				<path class="st110" d="M192.2,173c-9,39.7,30.2,58.9,39.2,19.2C240.4,152.5,201.2,133.3,192.2,173z"/>
				<g>
					<path class="st26" d="M212.2,198.6c-2.5,3.4,2.9,7.1,5.4,3.7C220.1,198.9,214.7,195.2,212.2,198.6z"/>
					<path class="st26" d="M200.4,177c-5,14.6,17.8,21.8,22.8,7.3C228.3,169.7,205.4,162.4,200.4,177z"/>
				</g>
			</g>
			<g>
				<path class="st110" d="M272.3,174.8c-9,39.7,30.2,58.9,39.2,19.2C320.5,154.3,281.3,135.1,272.3,174.8z"/>
				<g>
					<path class="st26" d="M292.3,200.4c-2.5,3.4,2.9,7.1,5.4,3.7C300.2,200.7,294.8,197,292.3,200.4z"/>
					<path class="st26" d="M280.5,178.8c-5,14.6,17.8,21.8,22.8,7.3C308.4,171.5,285.6,164.3,280.5,178.8z"/>
				</g>
			</g>
		</g>
		<path class="st110" d="M259.3,190.8c-4.1-1.6-5,6.2-10.7,1.5c-5.6-4.7-11.4,0.7-3.1,8.3c1.2,1.1,3.2,2,3.8,3.5
			c0.4,0.9,0.3,2.1,0.3,3.1c0.1,8.2-3.1,36.9-0.1,36.9c4.1,0.1,2.5-33.1,3.3-38.5c0.3-1.9,1.4-2.5,2.8-3.5c0.5-0.4,1-0.8,1.5-1.2
			C266.1,193.5,259.4,190.9,259.3,190.8z"/>
	</g>
	<g>
		<g>
			<path class="st109" d="M300.5,226.6c-18.9,20.7,16.9,43.9,33,28.2C358.5,230.4,321,204.2,300.5,226.6z"/>
		</g>
		<g>
			<path class="st109" d="M161.8,251c15.3,16.4,52.2-5.2,34.2-26.7C176.5,200.9,137.9,225.4,161.8,251z"/>
		</g>
	</g>
</g>
</svg>
